<mxfile host="app.diagrams.net" modified="2021-05-31T09:06:56.495Z" agent="5.0 (Windows NT 10.0; Win64; x64) AppleWebKit/537.36 (KHTML, like Gecko) Chrome/90.0.4430.212 Safari/537.36" etag="ZFMm_NBnV2QGVj1DvnAn" version="14.7.3" type="github">
  <diagram id="R2lEEEUBdFMjLlhIrx00" name="Page-1">
    <mxGraphModel dx="1185" dy="662" grid="1" gridSize="10" guides="1" tooltips="1" connect="1" arrows="1" fold="1" page="1" pageScale="1" pageWidth="850" pageHeight="1100" math="0" shadow="0" extFonts="Permanent Marker^https://fonts.googleapis.com/css?family=Permanent+Marker">
      <root>
        <mxCell id="0" />
        <mxCell id="1" parent="0" />
        <mxCell id="QEUJVyA_zQbXyYa64Bme-5" value="publisher" style="swimlane;fontStyle=0;childLayout=stackLayout;horizontal=1;startSize=26;horizontalStack=0;resizeParent=1;resizeParentMax=0;resizeLast=0;collapsible=1;marginBottom=0;" vertex="1" parent="1">
          <mxGeometry x="10" y="210" width="140" height="104" as="geometry" />
        </mxCell>
        <mxCell id="QEUJVyA_zQbXyYa64Bme-6" value="name" style="text;strokeColor=none;fillColor=none;align=left;verticalAlign=top;spacingLeft=4;spacingRight=4;overflow=hidden;rotatable=0;points=[[0,0.5],[1,0.5]];portConstraint=eastwest;fontStyle=4" vertex="1" parent="QEUJVyA_zQbXyYa64Bme-5">
          <mxGeometry y="26" width="140" height="26" as="geometry" />
        </mxCell>
        <mxCell id="QEUJVyA_zQbXyYa64Bme-7" value="address" style="text;strokeColor=none;fillColor=none;align=left;verticalAlign=top;spacingLeft=4;spacingRight=4;overflow=hidden;rotatable=0;points=[[0,0.5],[1,0.5]];portConstraint=eastwest;" vertex="1" parent="QEUJVyA_zQbXyYa64Bme-5">
          <mxGeometry y="52" width="140" height="26" as="geometry" />
        </mxCell>
        <mxCell id="QEUJVyA_zQbXyYa64Bme-8" value="phone_number" style="text;strokeColor=none;fillColor=none;align=left;verticalAlign=top;spacingLeft=4;spacingRight=4;overflow=hidden;rotatable=0;points=[[0,0.5],[1,0.5]];portConstraint=eastwest;" vertex="1" parent="QEUJVyA_zQbXyYa64Bme-5">
          <mxGeometry y="78" width="140" height="26" as="geometry" />
        </mxCell>
        <mxCell id="QEUJVyA_zQbXyYa64Bme-9" value="book" style="swimlane;fontStyle=0;childLayout=stackLayout;horizontal=1;startSize=26;horizontalStack=0;resizeParent=1;resizeParentMax=0;resizeLast=0;collapsible=1;marginBottom=0;" vertex="1" parent="1">
          <mxGeometry x="190" y="10" width="140" height="156" as="geometry" />
        </mxCell>
        <mxCell id="QEUJVyA_zQbXyYa64Bme-10" value="ISBN" style="text;strokeColor=none;fillColor=none;align=left;verticalAlign=top;spacingLeft=4;spacingRight=4;overflow=hidden;rotatable=0;points=[[0,0.5],[1,0.5]];portConstraint=eastwest;fontStyle=4" vertex="1" parent="QEUJVyA_zQbXyYa64Bme-9">
          <mxGeometry y="26" width="140" height="26" as="geometry" />
        </mxCell>
        <mxCell id="QEUJVyA_zQbXyYa64Bme-11" value="title" style="text;strokeColor=none;fillColor=none;align=left;verticalAlign=top;spacingLeft=4;spacingRight=4;overflow=hidden;rotatable=0;points=[[0,0.5],[1,0.5]];portConstraint=eastwest;" vertex="1" parent="QEUJVyA_zQbXyYa64Bme-9">
          <mxGeometry y="52" width="140" height="26" as="geometry" />
        </mxCell>
        <mxCell id="QEUJVyA_zQbXyYa64Bme-13" value="{writer}&#xa;" style="text;strokeColor=none;fillColor=none;align=left;verticalAlign=top;spacingLeft=4;spacingRight=4;overflow=hidden;rotatable=0;points=[[0,0.5],[1,0.5]];portConstraint=eastwest;" vertex="1" parent="QEUJVyA_zQbXyYa64Bme-9">
          <mxGeometry y="78" width="140" height="26" as="geometry" />
        </mxCell>
        <mxCell id="QEUJVyA_zQbXyYa64Bme-12" value="page_no" style="text;strokeColor=none;fillColor=none;align=left;verticalAlign=top;spacingLeft=4;spacingRight=4;overflow=hidden;rotatable=0;points=[[0,0.5],[1,0.5]];portConstraint=eastwest;" vertex="1" parent="QEUJVyA_zQbXyYa64Bme-9">
          <mxGeometry y="104" width="140" height="26" as="geometry" />
        </mxCell>
        <mxCell id="QEUJVyA_zQbXyYa64Bme-16" value="price" style="text;strokeColor=none;fillColor=none;align=left;verticalAlign=top;spacingLeft=4;spacingRight=4;overflow=hidden;rotatable=0;points=[[0,0.5],[1,0.5]];portConstraint=eastwest;" vertex="1" parent="QEUJVyA_zQbXyYa64Bme-9">
          <mxGeometry y="130" width="140" height="26" as="geometry" />
        </mxCell>
        <mxCell id="QEUJVyA_zQbXyYa64Bme-21" value="user" style="swimlane;fontStyle=0;childLayout=stackLayout;horizontal=1;startSize=26;horizontalStack=0;resizeParent=1;resizeParentMax=0;resizeLast=0;collapsible=1;marginBottom=0;" vertex="1" parent="1">
          <mxGeometry x="510" y="23" width="140" height="156" as="geometry" />
        </mxCell>
        <mxCell id="QEUJVyA_zQbXyYa64Bme-22" value="ID" style="text;strokeColor=none;fillColor=none;align=left;verticalAlign=top;spacingLeft=4;spacingRight=4;overflow=hidden;rotatable=0;points=[[0,0.5],[1,0.5]];portConstraint=eastwest;fontStyle=4" vertex="1" parent="QEUJVyA_zQbXyYa64Bme-21">
          <mxGeometry y="26" width="140" height="26" as="geometry" />
        </mxCell>
        <mxCell id="QEUJVyA_zQbXyYa64Bme-23" value="name" style="text;strokeColor=none;fillColor=none;align=left;verticalAlign=top;spacingLeft=4;spacingRight=4;overflow=hidden;rotatable=0;points=[[0,0.5],[1,0.5]];portConstraint=eastwest;" vertex="1" parent="QEUJVyA_zQbXyYa64Bme-21">
          <mxGeometry y="52" width="140" height="26" as="geometry" />
        </mxCell>
        <mxCell id="QEUJVyA_zQbXyYa64Bme-24" value="address" style="text;strokeColor=none;fillColor=none;align=left;verticalAlign=top;spacingLeft=4;spacingRight=4;overflow=hidden;rotatable=0;points=[[0,0.5],[1,0.5]];portConstraint=eastwest;" vertex="1" parent="QEUJVyA_zQbXyYa64Bme-21">
          <mxGeometry y="78" width="140" height="26" as="geometry" />
        </mxCell>
        <mxCell id="QEUJVyA_zQbXyYa64Bme-25" value="phone_number" style="text;strokeColor=none;fillColor=none;align=left;verticalAlign=top;spacingLeft=4;spacingRight=4;overflow=hidden;rotatable=0;points=[[0,0.5],[1,0.5]];portConstraint=eastwest;" vertex="1" parent="QEUJVyA_zQbXyYa64Bme-21">
          <mxGeometry y="104" width="140" height="26" as="geometry" />
        </mxCell>
        <mxCell id="QEUJVyA_zQbXyYa64Bme-26" value="point" style="text;strokeColor=none;fillColor=none;align=left;verticalAlign=top;spacingLeft=4;spacingRight=4;overflow=hidden;rotatable=0;points=[[0,0.5],[1,0.5]];portConstraint=eastwest;" vertex="1" parent="QEUJVyA_zQbXyYa64Bme-21">
          <mxGeometry y="130" width="140" height="26" as="geometry" />
        </mxCell>
        <mxCell id="QEUJVyA_zQbXyYa64Bme-51" value="" style="edgeStyle=orthogonalEdgeStyle;rounded=0;orthogonalLoop=1;jettySize=auto;html=1;exitX=0.5;exitY=1;exitDx=0;exitDy=0;" edge="1" parent="1" source="QEUJVyA_zQbXyYa64Bme-50">
          <mxGeometry relative="1" as="geometry">
            <mxPoint x="250" y="325" as="sourcePoint" />
            <mxPoint x="260" y="345" as="targetPoint" />
          </mxGeometry>
        </mxCell>
        <mxCell id="QEUJVyA_zQbXyYa64Bme-29" value="subject" style="swimlane;fontStyle=0;childLayout=stackLayout;horizontal=1;startSize=26;horizontalStack=0;resizeParent=1;resizeParentMax=0;resizeLast=0;collapsible=1;marginBottom=0;" vertex="1" parent="1">
          <mxGeometry x="190" y="345" width="140" height="78" as="geometry" />
        </mxCell>
        <mxCell id="QEUJVyA_zQbXyYa64Bme-30" value="subject_ID" style="text;strokeColor=none;fillColor=none;align=left;verticalAlign=top;spacingLeft=4;spacingRight=4;overflow=hidden;rotatable=0;points=[[0,0.5],[1,0.5]];portConstraint=eastwest;fontStyle=4" vertex="1" parent="QEUJVyA_zQbXyYa64Bme-29">
          <mxGeometry y="26" width="140" height="26" as="geometry" />
        </mxCell>
        <mxCell id="QEUJVyA_zQbXyYa64Bme-31" value="name" style="text;strokeColor=none;fillColor=none;align=left;verticalAlign=top;spacingLeft=4;spacingRight=4;overflow=hidden;rotatable=0;points=[[0,0.5],[1,0.5]];portConstraint=eastwest;" vertex="1" parent="QEUJVyA_zQbXyYa64Bme-29">
          <mxGeometry y="52" width="140" height="26" as="geometry" />
        </mxCell>
        <mxCell id="QEUJVyA_zQbXyYa64Bme-37" value="publish" style="rhombus;whiteSpace=wrap;html=1;" vertex="1" parent="1">
          <mxGeometry x="40" y="73" width="80" height="56" as="geometry" />
        </mxCell>
        <mxCell id="QEUJVyA_zQbXyYa64Bme-45" value="" style="edgeStyle=orthogonalEdgeStyle;rounded=0;orthogonalLoop=1;jettySize=auto;html=1;entryX=0.5;entryY=0;entryDx=0;entryDy=0;" edge="1" parent="1" source="QEUJVyA_zQbXyYa64Bme-37" target="QEUJVyA_zQbXyYa64Bme-5">
          <mxGeometry relative="1" as="geometry" />
        </mxCell>
        <mxCell id="QEUJVyA_zQbXyYa64Bme-48" value="" style="shape=link;html=1;exitX=1;exitY=0.5;exitDx=0;exitDy=0;entryX=0;entryY=0.5;entryDx=0;entryDy=0;" edge="1" parent="1" source="QEUJVyA_zQbXyYa64Bme-37" target="QEUJVyA_zQbXyYa64Bme-13">
          <mxGeometry width="100" relative="1" as="geometry">
            <mxPoint x="150" y="142" as="sourcePoint" />
            <mxPoint x="320" y="212" as="targetPoint" />
          </mxGeometry>
        </mxCell>
        <mxCell id="QEUJVyA_zQbXyYa64Bme-50" value="book_subject" style="rhombus;whiteSpace=wrap;html=1;" vertex="1" parent="1">
          <mxGeometry x="210" y="232" width="100" height="60" as="geometry" />
        </mxCell>
        <mxCell id="QEUJVyA_zQbXyYa64Bme-52" value="" style="shape=link;html=1;entryX=0.5;entryY=0;entryDx=0;entryDy=0;" edge="1" parent="1" source="QEUJVyA_zQbXyYa64Bme-16" target="QEUJVyA_zQbXyYa64Bme-50">
          <mxGeometry width="100" relative="1" as="geometry">
            <mxPoint x="260" y="192" as="sourcePoint" />
            <mxPoint x="320" y="212" as="targetPoint" />
          </mxGeometry>
        </mxCell>
        <mxCell id="QEUJVyA_zQbXyYa64Bme-53" value="purchase" style="rhombus;whiteSpace=wrap;html=1;" vertex="1" parent="1">
          <mxGeometry x="380" y="90" width="80" height="51" as="geometry" />
        </mxCell>
        <mxCell id="QEUJVyA_zQbXyYa64Bme-54" value="" style="endArrow=none;html=1;exitX=1;exitY=0.5;exitDx=0;exitDy=0;entryX=0;entryY=0.5;entryDx=0;entryDy=0;" edge="1" parent="1" source="QEUJVyA_zQbXyYa64Bme-53" target="QEUJVyA_zQbXyYa64Bme-24">
          <mxGeometry width="50" height="50" relative="1" as="geometry">
            <mxPoint x="460" y="160" as="sourcePoint" />
            <mxPoint x="600" y="117" as="targetPoint" />
          </mxGeometry>
        </mxCell>
        <mxCell id="QEUJVyA_zQbXyYa64Bme-55" value="" style="endArrow=none;html=1;exitX=1;exitY=0.5;exitDx=0;exitDy=0;entryX=0;entryY=0.5;entryDx=0;entryDy=0;" edge="1" parent="1" target="QEUJVyA_zQbXyYa64Bme-53">
          <mxGeometry width="50" height="50" relative="1" as="geometry">
            <mxPoint x="330" y="114.74999999999994" as="sourcePoint" />
            <mxPoint x="420" y="116.25" as="targetPoint" />
          </mxGeometry>
        </mxCell>
        <mxCell id="QEUJVyA_zQbXyYa64Bme-74" value="" style="rounded=0;whiteSpace=wrap;html=1;" vertex="1" parent="1">
          <mxGeometry x="395" y="179" width="50" height="50" as="geometry" />
        </mxCell>
        <mxCell id="QEUJVyA_zQbXyYa64Bme-75" value="review" style="text;strokeColor=none;fillColor=none;align=left;verticalAlign=top;spacingLeft=4;spacingRight=4;overflow=hidden;rotatable=0;points=[[0,0.5],[1,0.5]];portConstraint=eastwest;" vertex="1" parent="1">
          <mxGeometry x="395" y="179" width="50" height="26" as="geometry" />
        </mxCell>
        <mxCell id="QEUJVyA_zQbXyYa64Bme-76" value="grade" style="text;strokeColor=none;fillColor=none;align=left;verticalAlign=top;spacingLeft=4;spacingRight=4;overflow=hidden;rotatable=0;points=[[0,0.5],[1,0.5]];portConstraint=eastwest;" vertex="1" parent="1">
          <mxGeometry x="395" y="198" width="50" height="26" as="geometry" />
        </mxCell>
        <mxCell id="QEUJVyA_zQbXyYa64Bme-78" value="" style="endArrow=none;dashed=1;html=1;entryX=0.5;entryY=1;entryDx=0;entryDy=0;" edge="1" parent="1" source="QEUJVyA_zQbXyYa64Bme-75" target="QEUJVyA_zQbXyYa64Bme-53">
          <mxGeometry width="50" height="50" relative="1" as="geometry">
            <mxPoint x="430" y="240" as="sourcePoint" />
            <mxPoint x="480" y="190" as="targetPoint" />
          </mxGeometry>
        </mxCell>
        <mxCell id="QEUJVyA_zQbXyYa64Bme-81" value="related_sub" style="rhombus;whiteSpace=wrap;html=1;" vertex="1" parent="1">
          <mxGeometry x="210" y="450" width="90" height="50" as="geometry" />
        </mxCell>
        <mxCell id="QEUJVyA_zQbXyYa64Bme-82" value="" style="endArrow=none;html=1;entryX=0;entryY=0.731;entryDx=0;entryDy=0;entryPerimeter=0;exitX=0;exitY=0.5;exitDx=0;exitDy=0;" edge="1" parent="1" source="QEUJVyA_zQbXyYa64Bme-81" target="QEUJVyA_zQbXyYa64Bme-30">
          <mxGeometry width="50" height="50" relative="1" as="geometry">
            <mxPoint x="160" y="460" as="sourcePoint" />
            <mxPoint x="180" y="400" as="targetPoint" />
            <Array as="points">
              <mxPoint x="150" y="475" />
              <mxPoint x="150" y="390" />
            </Array>
          </mxGeometry>
        </mxCell>
        <mxCell id="QEUJVyA_zQbXyYa64Bme-83" value="" style="endArrow=none;html=1;exitX=1;exitY=0.5;exitDx=0;exitDy=0;" edge="1" parent="1" source="QEUJVyA_zQbXyYa64Bme-81">
          <mxGeometry width="50" height="50" relative="1" as="geometry">
            <mxPoint x="260" y="450" as="sourcePoint" />
            <mxPoint x="330" y="390" as="targetPoint" />
            <Array as="points">
              <mxPoint x="370" y="475" />
              <mxPoint x="370" y="390" />
            </Array>
          </mxGeometry>
        </mxCell>
        <mxCell id="QEUJVyA_zQbXyYa64Bme-408" value="publisher" style="swimlane;fontStyle=0;childLayout=stackLayout;horizontal=1;startSize=26;horizontalStack=0;resizeParent=1;resizeParentMax=0;resizeLast=0;collapsible=1;marginBottom=0;" vertex="1" parent="1">
          <mxGeometry x="90" y="750" width="140" height="104" as="geometry" />
        </mxCell>
        <mxCell id="QEUJVyA_zQbXyYa64Bme-409" value="name" style="text;strokeColor=none;fillColor=none;align=left;verticalAlign=top;spacingLeft=4;spacingRight=4;overflow=hidden;rotatable=0;points=[[0,0.5],[1,0.5]];portConstraint=eastwest;fontStyle=4" vertex="1" parent="QEUJVyA_zQbXyYa64Bme-408">
          <mxGeometry y="26" width="140" height="26" as="geometry" />
        </mxCell>
        <mxCell id="QEUJVyA_zQbXyYa64Bme-410" value="address" style="text;strokeColor=none;fillColor=none;align=left;verticalAlign=top;spacingLeft=4;spacingRight=4;overflow=hidden;rotatable=0;points=[[0,0.5],[1,0.5]];portConstraint=eastwest;" vertex="1" parent="QEUJVyA_zQbXyYa64Bme-408">
          <mxGeometry y="52" width="140" height="26" as="geometry" />
        </mxCell>
        <mxCell id="QEUJVyA_zQbXyYa64Bme-411" value="phone_number" style="text;strokeColor=none;fillColor=none;align=left;verticalAlign=top;spacingLeft=4;spacingRight=4;overflow=hidden;rotatable=0;points=[[0,0.5],[1,0.5]];portConstraint=eastwest;" vertex="1" parent="QEUJVyA_zQbXyYa64Bme-408">
          <mxGeometry y="78" width="140" height="26" as="geometry" />
        </mxCell>
        <mxCell id="QEUJVyA_zQbXyYa64Bme-412" value="book" style="swimlane;fontStyle=0;childLayout=stackLayout;horizontal=1;startSize=26;horizontalStack=0;resizeParent=1;resizeParentMax=0;resizeLast=0;collapsible=1;marginBottom=0;" vertex="1" parent="1">
          <mxGeometry x="270" y="550" width="140" height="156" as="geometry" />
        </mxCell>
        <mxCell id="QEUJVyA_zQbXyYa64Bme-413" value="ISBN" style="text;strokeColor=none;fillColor=none;align=left;verticalAlign=top;spacingLeft=4;spacingRight=4;overflow=hidden;rotatable=0;points=[[0,0.5],[1,0.5]];portConstraint=eastwest;fontStyle=4" vertex="1" parent="QEUJVyA_zQbXyYa64Bme-412">
          <mxGeometry y="26" width="140" height="26" as="geometry" />
        </mxCell>
        <mxCell id="QEUJVyA_zQbXyYa64Bme-414" value="title" style="text;strokeColor=none;fillColor=none;align=left;verticalAlign=top;spacingLeft=4;spacingRight=4;overflow=hidden;rotatable=0;points=[[0,0.5],[1,0.5]];portConstraint=eastwest;" vertex="1" parent="QEUJVyA_zQbXyYa64Bme-412">
          <mxGeometry y="52" width="140" height="26" as="geometry" />
        </mxCell>
        <mxCell id="QEUJVyA_zQbXyYa64Bme-415" value="{writer}&#xa;" style="text;strokeColor=none;fillColor=none;align=left;verticalAlign=top;spacingLeft=4;spacingRight=4;overflow=hidden;rotatable=0;points=[[0,0.5],[1,0.5]];portConstraint=eastwest;" vertex="1" parent="QEUJVyA_zQbXyYa64Bme-412">
          <mxGeometry y="78" width="140" height="26" as="geometry" />
        </mxCell>
        <mxCell id="QEUJVyA_zQbXyYa64Bme-416" value="page_no" style="text;strokeColor=none;fillColor=none;align=left;verticalAlign=top;spacingLeft=4;spacingRight=4;overflow=hidden;rotatable=0;points=[[0,0.5],[1,0.5]];portConstraint=eastwest;" vertex="1" parent="QEUJVyA_zQbXyYa64Bme-412">
          <mxGeometry y="104" width="140" height="26" as="geometry" />
        </mxCell>
        <mxCell id="QEUJVyA_zQbXyYa64Bme-417" value="price" style="text;strokeColor=none;fillColor=none;align=left;verticalAlign=top;spacingLeft=4;spacingRight=4;overflow=hidden;rotatable=0;points=[[0,0.5],[1,0.5]];portConstraint=eastwest;" vertex="1" parent="QEUJVyA_zQbXyYa64Bme-412">
          <mxGeometry y="130" width="140" height="26" as="geometry" />
        </mxCell>
        <mxCell id="QEUJVyA_zQbXyYa64Bme-418" value="user" style="swimlane;fontStyle=0;childLayout=stackLayout;horizontal=1;startSize=26;horizontalStack=0;resizeParent=1;resizeParentMax=0;resizeLast=0;collapsible=1;marginBottom=0;" vertex="1" parent="1">
          <mxGeometry x="590" y="563" width="140" height="156" as="geometry" />
        </mxCell>
        <mxCell id="QEUJVyA_zQbXyYa64Bme-419" value="ID" style="text;strokeColor=none;fillColor=none;align=left;verticalAlign=top;spacingLeft=4;spacingRight=4;overflow=hidden;rotatable=0;points=[[0,0.5],[1,0.5]];portConstraint=eastwest;fontStyle=4" vertex="1" parent="QEUJVyA_zQbXyYa64Bme-418">
          <mxGeometry y="26" width="140" height="26" as="geometry" />
        </mxCell>
        <mxCell id="QEUJVyA_zQbXyYa64Bme-420" value="name" style="text;strokeColor=none;fillColor=none;align=left;verticalAlign=top;spacingLeft=4;spacingRight=4;overflow=hidden;rotatable=0;points=[[0,0.5],[1,0.5]];portConstraint=eastwest;" vertex="1" parent="QEUJVyA_zQbXyYa64Bme-418">
          <mxGeometry y="52" width="140" height="26" as="geometry" />
        </mxCell>
        <mxCell id="QEUJVyA_zQbXyYa64Bme-421" value="address" style="text;strokeColor=none;fillColor=none;align=left;verticalAlign=top;spacingLeft=4;spacingRight=4;overflow=hidden;rotatable=0;points=[[0,0.5],[1,0.5]];portConstraint=eastwest;" vertex="1" parent="QEUJVyA_zQbXyYa64Bme-418">
          <mxGeometry y="78" width="140" height="26" as="geometry" />
        </mxCell>
        <mxCell id="QEUJVyA_zQbXyYa64Bme-422" value="phone_number" style="text;strokeColor=none;fillColor=none;align=left;verticalAlign=top;spacingLeft=4;spacingRight=4;overflow=hidden;rotatable=0;points=[[0,0.5],[1,0.5]];portConstraint=eastwest;" vertex="1" parent="QEUJVyA_zQbXyYa64Bme-418">
          <mxGeometry y="104" width="140" height="26" as="geometry" />
        </mxCell>
        <mxCell id="QEUJVyA_zQbXyYa64Bme-423" value="point" style="text;strokeColor=none;fillColor=none;align=left;verticalAlign=top;spacingLeft=4;spacingRight=4;overflow=hidden;rotatable=0;points=[[0,0.5],[1,0.5]];portConstraint=eastwest;" vertex="1" parent="QEUJVyA_zQbXyYa64Bme-418">
          <mxGeometry y="130" width="140" height="26" as="geometry" />
        </mxCell>
        <mxCell id="QEUJVyA_zQbXyYa64Bme-424" value="" style="edgeStyle=orthogonalEdgeStyle;rounded=0;orthogonalLoop=1;jettySize=auto;html=1;exitX=0.5;exitY=1;exitDx=0;exitDy=0;" edge="1" parent="1" source="QEUJVyA_zQbXyYa64Bme-431">
          <mxGeometry relative="1" as="geometry">
            <mxPoint x="330" y="865" as="sourcePoint" />
            <mxPoint x="340" y="884.9999999999999" as="targetPoint" />
          </mxGeometry>
        </mxCell>
        <mxCell id="QEUJVyA_zQbXyYa64Bme-425" value="subject" style="swimlane;fontStyle=0;childLayout=stackLayout;horizontal=1;startSize=26;horizontalStack=0;resizeParent=1;resizeParentMax=0;resizeLast=0;collapsible=1;marginBottom=0;" vertex="1" parent="1">
          <mxGeometry x="270" y="885" width="140" height="78" as="geometry" />
        </mxCell>
        <mxCell id="QEUJVyA_zQbXyYa64Bme-426" value="subject_ID" style="text;strokeColor=none;fillColor=none;align=left;verticalAlign=top;spacingLeft=4;spacingRight=4;overflow=hidden;rotatable=0;points=[[0,0.5],[1,0.5]];portConstraint=eastwest;fontStyle=4" vertex="1" parent="QEUJVyA_zQbXyYa64Bme-425">
          <mxGeometry y="26" width="140" height="26" as="geometry" />
        </mxCell>
        <mxCell id="QEUJVyA_zQbXyYa64Bme-427" value="name" style="text;strokeColor=none;fillColor=none;align=left;verticalAlign=top;spacingLeft=4;spacingRight=4;overflow=hidden;rotatable=0;points=[[0,0.5],[1,0.5]];portConstraint=eastwest;" vertex="1" parent="QEUJVyA_zQbXyYa64Bme-425">
          <mxGeometry y="52" width="140" height="26" as="geometry" />
        </mxCell>
        <mxCell id="QEUJVyA_zQbXyYa64Bme-428" value="publish" style="rhombus;whiteSpace=wrap;html=1;" vertex="1" parent="1">
          <mxGeometry x="120" y="613" width="80" height="56" as="geometry" />
        </mxCell>
        <mxCell id="QEUJVyA_zQbXyYa64Bme-429" value="" style="edgeStyle=orthogonalEdgeStyle;rounded=0;orthogonalLoop=1;jettySize=auto;html=1;entryX=0.5;entryY=0;entryDx=0;entryDy=0;" edge="1" parent="1" source="QEUJVyA_zQbXyYa64Bme-428" target="QEUJVyA_zQbXyYa64Bme-408">
          <mxGeometry relative="1" as="geometry" />
        </mxCell>
        <mxCell id="QEUJVyA_zQbXyYa64Bme-430" value="" style="shape=link;html=1;exitX=1;exitY=0.5;exitDx=0;exitDy=0;entryX=0;entryY=0.5;entryDx=0;entryDy=0;" edge="1" parent="1" source="QEUJVyA_zQbXyYa64Bme-428" target="QEUJVyA_zQbXyYa64Bme-415">
          <mxGeometry width="100" relative="1" as="geometry">
            <mxPoint x="230" y="682" as="sourcePoint" />
            <mxPoint x="400" y="752" as="targetPoint" />
          </mxGeometry>
        </mxCell>
        <mxCell id="QEUJVyA_zQbXyYa64Bme-431" value="book_subject" style="rhombus;whiteSpace=wrap;html=1;" vertex="1" parent="1">
          <mxGeometry x="290" y="772" width="100" height="60" as="geometry" />
        </mxCell>
        <mxCell id="QEUJVyA_zQbXyYa64Bme-432" value="" style="shape=link;html=1;entryX=0.5;entryY=0;entryDx=0;entryDy=0;" edge="1" parent="1" source="QEUJVyA_zQbXyYa64Bme-417" target="QEUJVyA_zQbXyYa64Bme-431">
          <mxGeometry width="100" relative="1" as="geometry">
            <mxPoint x="340" y="732" as="sourcePoint" />
            <mxPoint x="400" y="752" as="targetPoint" />
          </mxGeometry>
        </mxCell>
        <mxCell id="QEUJVyA_zQbXyYa64Bme-433" value="purchase" style="rhombus;whiteSpace=wrap;html=1;" vertex="1" parent="1">
          <mxGeometry x="460" y="630" width="80" height="51" as="geometry" />
        </mxCell>
        <mxCell id="QEUJVyA_zQbXyYa64Bme-434" value="" style="endArrow=none;html=1;exitX=1;exitY=0.5;exitDx=0;exitDy=0;entryX=0;entryY=0.5;entryDx=0;entryDy=0;" edge="1" parent="1" source="QEUJVyA_zQbXyYa64Bme-433" target="QEUJVyA_zQbXyYa64Bme-421">
          <mxGeometry width="50" height="50" relative="1" as="geometry">
            <mxPoint x="540" y="700" as="sourcePoint" />
            <mxPoint x="680" y="657" as="targetPoint" />
          </mxGeometry>
        </mxCell>
        <mxCell id="QEUJVyA_zQbXyYa64Bme-435" value="" style="endArrow=none;html=1;exitX=1;exitY=0.5;exitDx=0;exitDy=0;entryX=0;entryY=0.5;entryDx=0;entryDy=0;" edge="1" parent="1" target="QEUJVyA_zQbXyYa64Bme-433">
          <mxGeometry width="50" height="50" relative="1" as="geometry">
            <mxPoint x="410" y="654.75" as="sourcePoint" />
            <mxPoint x="500" y="656.25" as="targetPoint" />
          </mxGeometry>
        </mxCell>
        <mxCell id="QEUJVyA_zQbXyYa64Bme-436" value="" style="rounded=0;whiteSpace=wrap;html=1;" vertex="1" parent="1">
          <mxGeometry x="475" y="719" width="50" height="50" as="geometry" />
        </mxCell>
        <mxCell id="QEUJVyA_zQbXyYa64Bme-437" value="review" style="text;strokeColor=none;fillColor=none;align=left;verticalAlign=top;spacingLeft=4;spacingRight=4;overflow=hidden;rotatable=0;points=[[0,0.5],[1,0.5]];portConstraint=eastwest;" vertex="1" parent="1">
          <mxGeometry x="475" y="719" width="50" height="26" as="geometry" />
        </mxCell>
        <mxCell id="QEUJVyA_zQbXyYa64Bme-438" value="grade" style="text;strokeColor=none;fillColor=none;align=left;verticalAlign=top;spacingLeft=4;spacingRight=4;overflow=hidden;rotatable=0;points=[[0,0.5],[1,0.5]];portConstraint=eastwest;" vertex="1" parent="1">
          <mxGeometry x="475" y="738" width="50" height="26" as="geometry" />
        </mxCell>
        <mxCell id="QEUJVyA_zQbXyYa64Bme-439" value="" style="endArrow=none;dashed=1;html=1;entryX=0.5;entryY=1;entryDx=0;entryDy=0;" edge="1" parent="1" source="QEUJVyA_zQbXyYa64Bme-437" target="QEUJVyA_zQbXyYa64Bme-433">
          <mxGeometry width="50" height="50" relative="1" as="geometry">
            <mxPoint x="510" y="780" as="sourcePoint" />
            <mxPoint x="560" y="730" as="targetPoint" />
          </mxGeometry>
        </mxCell>
        <mxCell id="QEUJVyA_zQbXyYa64Bme-440" value="related_sub" style="rhombus;whiteSpace=wrap;html=1;" vertex="1" parent="1">
          <mxGeometry x="290" y="990" width="90" height="50" as="geometry" />
        </mxCell>
        <mxCell id="QEUJVyA_zQbXyYa64Bme-441" value="" style="endArrow=none;html=1;entryX=0;entryY=0.731;entryDx=0;entryDy=0;entryPerimeter=0;exitX=0;exitY=0.5;exitDx=0;exitDy=0;" edge="1" parent="1" source="QEUJVyA_zQbXyYa64Bme-440" target="QEUJVyA_zQbXyYa64Bme-426">
          <mxGeometry width="50" height="50" relative="1" as="geometry">
            <mxPoint x="240" y="1000" as="sourcePoint" />
            <mxPoint x="260" y="940" as="targetPoint" />
            <Array as="points">
              <mxPoint x="230" y="1015" />
              <mxPoint x="230" y="930" />
            </Array>
          </mxGeometry>
        </mxCell>
        <mxCell id="QEUJVyA_zQbXyYa64Bme-442" value="" style="endArrow=none;html=1;exitX=1;exitY=0.5;exitDx=0;exitDy=0;" edge="1" parent="1" source="QEUJVyA_zQbXyYa64Bme-440">
          <mxGeometry width="50" height="50" relative="1" as="geometry">
            <mxPoint x="340" y="990" as="sourcePoint" />
            <mxPoint x="410" y="930" as="targetPoint" />
            <Array as="points">
              <mxPoint x="450" y="1015" />
              <mxPoint x="450" y="930" />
            </Array>
          </mxGeometry>
        </mxCell>
      </root>
    </mxGraphModel>
  </diagram>
</mxfile>
